<svg id="Layer_1" data-name="Layer 1" xmlns="http://www.w3.org/2000/svg" viewBox="0 0 1341 639"><defs><style>.cls-1{fill:#fff;}</style></defs><path d="M182,392.4l-12.75-25.49c-10.18-.16-23.15-.32-34.1-.32-8.42,0-13.1.1-15.56.18L62,389,84.51,327c16.8-46.2,37-99.46,56.6-151l0-.1c19.52-51.37,39.68-104.43,56.34-150.24L204.67,6H788.26L721.47,59.43c-36.4,29.12-58.26,57.47-65,84.28l-4.29,17.16-54.81-6.75V136.43c0-2.45,0-7-10.84-11.84-8.59-3.82-25.91-8.37-59.59-8.37H296.21l-51.32,128.3H373.33l6.55,21.12c3.35,10.82,6.42,14.35,7.58,15.36.48.42.93.82,3.34,1.19H612.5l-66.78,53.42a230.49,230.49,0,0,0-22.65,21C499.28,380.93,482,392.4,426.55,392.4Z"/><rect x="338.56" y="301.02" width="113.2" height="60" transform="translate(-113.99 250.48) rotate(-30.96)"/><path d="M173.93,271.55l114.64,57.53-69,137.6c-6.87,13.69-9.25,25.05-6.87,32.84,2.79,9.17,13.52,16.18,22,20.45l15.75,7.9-18.28,51.94-17.22-3.69a154.41,154.41,0,0,0-32.44-3.48c-38.5,0-68.36,14.07-90.17,24.34-6.85,3.23-12.76,6-18.21,7.94L6.54,628.79Z"/><path d="M476.06,485l-3.48-15.66C458,403.62,429.53,359.77,388,339l-53.66-26.83L388,285.35c41.51-20.75,70-64.6,84.56-130.32l3.48-15.66h51.61L531.16,155c14.6,65.72,43.05,109.57,84.56,130.32l53.66,26.84L615.72,339c-41.51,20.75-70,64.6-84.56,130.32L527.67,485Z"/><path d="M673.9,298.72,788.65,48.15,809.73,6H921.88l5,56.27-9.12,1.65c-.8,6.9-.94,22.12,4.67,52.93,8.92,48.93,29,119.87,59.75,210.84l13.38,39.6H878.42L852.82,222.2,792.4,350.6,733.88,463.33l-1.28,2.54c-6.87,13.69-9.25,25-6.87,32.84,2.79,9.16,13.52,16.18,22,20.45l15.74,7.89-18.28,52L728,575.3a155.06,155.06,0,0,0-32.44-3.47c-38.5,0-68.36,14.06-90.16,24.34-6.85,3.22-12.77,6-18.22,7.93L519.63,628Z"/><path d="M902.9,510.11l-3.48-15.66c-14.61-65.72-43.06-109.57-84.57-130.32l-53.66-26.84,53.66-26.83c41.51-20.75,70-64.6,84.57-130.32l3.48-15.66h51.61L958,180.14c14.6,65.72,43,109.57,84.56,130.32l53.66,26.83-53.66,26.84c-41.51,20.75-70,64.6-84.56,130.32l-3.48,15.66Z"/><path d="M1270.22,604.1c-5.45-1.92-11.36-4.7-18.21-7.93-21.81-10.28-51.67-24.34-90.17-24.34a155.14,155.14,0,0,0-32.44,3.47l-17.22,3.7-18.27-52,15.74-7.89c8.5-4.27,19.23-11.29,22-20.45,2.38-7.79,0-19.15-6.87-32.85l-1.27-2.53L1065,350.6l-60.43-128.4L979,367.29H861.79l13.38-39.6c30.73-91,50.84-161.91,59.75-210.84,5.61-30.81,5.47-46,4.68-52.93l-9.13-1.65,5-56.27h112.15l21.08,42.15L1183.54,298.8,1337.78,628Z"/><path class="cls-1" d="M193.28,372.4l-12.63-25.26c-9.94-.21-30.37-.55-46.57-.55-13.83,0-18.39.26-19.79.38l-19.61,7.56,7.51-20.65c16.76-46.1,37-99.32,56.54-150.78S198.46,78.55,215.18,32.58L217.57,26H730.13L707.87,43.81C668,75.73,643.79,107.71,636,138.86l-19.7-2.43c0-26.68-30.43-40.21-90.43-40.21H281.56l-67.32,168.3H357.48l2.18,7c8,25.73,18.52,29.4,28.69,30.63h166L532.11,320a252.21,252.21,0,0,0-24.46,22.62C488,362.73,476.28,372.4,425.44,372.4Z"/><rect class="cls-1" x="357.45" y="321.02" width="73.2" height="20" transform="translate(-114.15 249.91) rotate(-30.96)"/><path class="cls-1" d="M182.21,298.64,260.61,338,200.53,457.71c-9.35,18.63-12.08,34.66-8.12,47.64,3.9,12.8,14.73,23.74,32.18,32.5L218,556.56a174.92,174.92,0,0,0-36.64-3.92c-43,0-76.51,15.8-98.69,26.25-6.36,3-11.86,5.59-16.35,7.17l-22.52,8Z"/><path class="cls-1" d="M491,465c-16-71.89-48-120.29-95.14-143.87L378,312.19l17.89-8.95C443,279.66,475,231.26,491,159.37h19.52c16,71.89,48,120.29,95.14,143.87l17.89,8.95-17.89,8.94c-47.15,23.58-79.16,72-95.14,143.87Z"/><path class="cls-1" d="M690.94,307.13,805.58,56.79,821,26h81.5l1.78,19.84c-1.17.21-2.46.74-3.87,3.13-8.2,13.9-11.08,69.43,61.78,285.12l4.46,13.2H894.09L860.45,156.65,773.36,341.73,715,454.24l-1.33,2.66c-9.35,18.63-12.09,34.66-8.13,47.64,3.9,12.8,14.73,23.73,32.18,32.49l-6.58,18.72a174.92,174.92,0,0,0-36.64-3.92c-43,0-76.51,15.79-98.69,26.25-6.36,3-11.85,5.58-16.35,7.17l-22.52,8Z"/><path class="cls-1" d="M917.83,490.11c-16-71.89-48-120.29-95.14-143.87l-17.89-8.95,17.89-8.94c47.15-23.58,79.16-72,95.14-143.87h19.52c16,71.89,48,120.29,95.14,143.87l17.89,8.94-17.89,8.95c-47.15,23.58-79.16,72-95.14,143.87Z"/><path class="cls-1" d="M1275.77,585.25c-4.49-1.59-10-4.18-16.35-7.17-22.18-10.46-55.71-26.25-98.69-26.25a174.92,174.92,0,0,0-36.64,3.92L1117.51,537c17.45-8.76,28.28-19.69,32.18-32.49,4-13,1.23-29-8.12-47.65l-1.34-2.65-58.4-112.51-87.1-185.08L961.09,347.29H888.55l4.46-13.2C965.87,118.4,963,62.87,954.79,49c-1.41-2.39-2.69-2.92-3.87-3.13L952.7,26h81.5l15.4,30.79,114.68,250.42,134,286Z"/></svg>